<svg width="176" height="190" viewBox="0 0 176 190" fill="none" xmlns="http://www.w3.org/2000/svg">
<g filter="url(#filter0_d_164905_566)">
<path d="M4.128 101.496C4.128 94.968 5.6 89.112 8.544 83.928C11.488 78.68 15.488 74.584 20.544 71.64C25.664 68.696 31.328 67.224 37.536 67.224C44.832 67.224 51.2 68.984 56.64 72.504C62.08 76.024 66.048 81.016 68.544 87.48H58.08C56.224 83.448 53.536 80.344 50.016 78.168C46.56 75.992 42.4 74.904 37.536 74.904C32.864 74.904 28.672 75.992 24.96 78.168C21.248 80.344 18.336 83.448 16.224 87.48C14.112 91.448 13.056 96.12 13.056 101.496C13.056 106.808 14.112 111.48 16.224 115.512C18.336 119.48 21.248 122.552 24.96 124.728C28.672 126.904 32.864 127.992 37.536 127.992C42.4 127.992 46.56 126.936 50.016 124.824C53.536 122.648 56.224 119.544 58.08 115.512H68.544C66.048 121.912 62.08 126.872 56.64 130.392C51.2 133.848 44.832 135.576 37.536 135.576C31.328 135.576 25.664 134.136 20.544 131.256C15.488 128.312 11.488 124.248 8.544 119.064C5.6 113.88 4.128 108.024 4.128 101.496Z" fill="url(#paint0_linear_164905_566)"/>
<path d="M113.528 95.048C116.771 95.56 119.715 96.8827 122.36 99.016C125.091 101.149 127.224 103.795 128.76 106.952C130.381 110.109 131.192 113.48 131.192 117.064C131.192 121.587 130.04 125.683 127.736 129.352C125.432 132.936 122.061 135.795 117.624 137.928C113.272 139.976 108.109 141 102.136 141H68.856V51.784H100.856C106.915 51.784 112.077 52.808 116.344 54.856C120.611 56.8187 123.811 59.5067 125.944 62.92C128.077 66.3333 129.144 70.1733 129.144 74.44C129.144 79.7307 127.693 84.1253 124.792 87.624C121.976 91.0373 118.221 93.512 113.528 95.048ZM80.504 90.312H100.088C105.549 90.312 109.773 89.032 112.76 86.472C115.747 83.912 117.24 80.3707 117.24 75.848C117.24 71.3253 115.747 67.784 112.76 65.224C109.773 62.664 105.464 61.384 99.832 61.384H80.504V90.312ZM101.112 131.4C106.915 131.4 111.437 130.035 114.68 127.304C117.923 124.573 119.544 120.776 119.544 115.912C119.544 110.963 117.837 107.08 114.424 104.264C111.011 101.363 106.445 99.912 100.728 99.912H80.504V131.4H101.112Z" fill="url(#paint1_linear_164905_566)"/>
</g>
<defs>
<filter id="filter0_d_164905_566" x="0.12793" y="51.7832" width="135.064" height="97.2168" filterUnits="userSpaceOnUse" color-interpolation-filters="sRGB">
<feFlood flood-opacity="0" result="BackgroundImageFix"/>
<feColorMatrix in="SourceAlpha" type="matrix" values="0 0 0 0 0 0 0 0 0 0 0 0 0 0 0 0 0 0 127 0" result="hardAlpha"/>
<feOffset dy="4"/>
<feGaussianBlur stdDeviation="2"/>
<feComposite in2="hardAlpha" operator="out"/>
<feColorMatrix type="matrix" values="0 0 0 0 0 0 0 0 0 0 0 0 0 0 0 0 0 0 0.35 0"/>
<feBlend mode="normal" in2="BackgroundImageFix" result="effect1_dropShadow_164905_566"/>
<feBlend mode="normal" in="SourceGraphic" in2="effect1_dropShadow_164905_566" result="shape"/>
</filter>
<linearGradient id="paint0_linear_164905_566" x1="59.5" y1="29" x2="59.5" y2="186" gradientUnits="userSpaceOnUse">
<stop stop-color="#272121"/>
<stop offset="1" stop-color="#705D5D" stop-opacity="0"/>
</linearGradient>
<linearGradient id="paint1_linear_164905_566" x1="117.141" y1="0" x2="117.141" y2="189.465" gradientUnits="userSpaceOnUse">
<stop stop-color="#272121"/>
<stop offset="1" stop-color="#705D5D" stop-opacity="0"/>
</linearGradient>
</defs>
</svg>
